<?xml version="1.0" encoding="UTF-8" standalone="no"?>
<!-- Created with Inkscape (http://www.inkscape.org/) -->

<svg
   width="336.8909mm"
   height="333.94864mm"
   viewBox="0 0 336.8909 333.94864"
   version="1.1"
   id="svg1"
   xml:space="preserve"
   xmlns:xlink="http://www.w3.org/1999/xlink"
   xmlns="http://www.w3.org/2000/svg"
   xmlns:svg="http://www.w3.org/2000/svg"><defs
     id="defs1"><linearGradient
       xlink:href="#linearGradient4"
       id="linearGradient17"
       gradientUnits="userSpaceOnUse"
       x1="55.071674"
       y1="239.89961"
       x2="150.95956"
       y2="51.709026"
       spreadMethod="reflect"
       gradientTransform="matrix(0.8729661,0,0,0.8729661,12.669359,11.813895)" /><linearGradient
       id="linearGradient4"><stop
         style="stop-color:#389680;stop-opacity:1;"
         offset="0"
         id="stop4" /><stop
         style="stop-color:#4ade8d;stop-opacity:1;"
         offset="1"
         id="stop5" /></linearGradient><radialGradient
       xlink:href="#linearGradient47"
       id="radialGradient46"
       cx="104.00133"
       cy="134.61855"
       fx="104.00133"
       fy="134.61855"
       r="69.907875"
       gradientTransform="matrix(0.8729661,0,0,0.87062043,14.667103,15.712828)"
       gradientUnits="userSpaceOnUse"
       spreadMethod="reflect" /><linearGradient
       id="linearGradient47"><stop
         style="stop-color:#280027;stop-opacity:1;"
         offset="0.40225989"
         id="stop46" /><stop
         style="stop-color:#4ade8d;stop-opacity:0;"
         offset="1"
         id="stop47" /></linearGradient></defs><g
     id="layer1"
     transform="translate(62.652569,34.414551)"><rect
       style="display:none;fill:#0a0a0a;fill-opacity:1;stroke-width:2.01899;stroke-linecap:round;stroke-linejoin:round;stroke-miterlimit:113.7;paint-order:markers fill stroke"
       id="rect1"
       width="315.45401"
       height="305.7027"
       x="-354.02872"
       y="85.230415"
       ry="1.4278489" /><ellipse
       style="fill:#0a0a0a;fill-opacity:1;stroke-width:1.75898;stroke-linecap:round;stroke-linejoin:round;stroke-miterlimit:113.7;paint-order:markers fill stroke"
       id="path1"
       cx="105.79288"
       cy="132.55977"
       rx="168.44545"
       ry="166.97432" /><path
       id="path4-3"
       style="fill:url(#linearGradient17);fill-opacity:1;stroke:none;stroke-width:1.3304;stroke-linecap:round;stroke-linejoin:round;stroke-miterlimit:113.7;stroke-dasharray:none;paint-order:markers fill stroke"
       d="M 83.364481,149.47106 C 51.29253,106.42114 91.330889,61.127923 124.66162,68.043346 111.08767,71.285233 76.711292,86.108024 79.398088,122.17294 103.80033,63.162275 181.82616,100.57338 183.22426,145.03804 c 4.84265,-14.10575 11.05746,-43.37652 3.99415,-70.36669 -6.94853,-6.20185 -43.59439,-25.191555 -80.67533,-28.541575 -17.086563,1.70438 -35.092188,5.294664 -50.318949,13.198418 -10.437024,38.9039 -3.464712,69.894467 27.14035,90.142867 z m 33.597689,8.1661 C 76.918273,179.34282 31.964436,124.86815 46.733675,62.677049 l -22.86509,11.89918 C 6.2067072,154.59467 87.565259,194.81536 116.96217,157.63716 Z m -25.267296,71.78561 14.750706,6.92917 c 24.78163,-17.29098 50.91467,-26.30614 71.53394,-75.23098 -1.10066,-51.68153 -50.34119,-74.190413 -81.335241,-54.60843 67.482361,-11.041035 65.601441,90.86391 -4.949405,122.91024 z M 27.517576,143.96302 c 2.375174,20.82227 31.09965,66.95663 56.423227,79.52045 68.019837,-28.92648 55.490587,-90.59495 46.689407,-99.64802 9.46824,50.9392 -56.023488,88.86152 -103.112634,20.12757 z" /><path
       id="path4-3-7"
       style="mix-blend-mode:multiply;fill:url(#radialGradient46);fill-opacity:1;stroke:none;stroke-width:1.3304;stroke-linecap:round;stroke-linejoin:round;stroke-miterlimit:113.7;stroke-dasharray:none;paint-order:markers fill stroke"
       d="M 99.138384,72.051258 A 61.027237,61.027237 0 0 0 52.504087,102.41284 c 2.766402,19.10591 12.612595,34.99371 30.856906,47.06421 C 59.474222,117.41402 75.587631,84.106807 99.138384,72.051258 Z M 112.8483,72.172612 C 97.363779,79.133161 77.319081,94.31704 79.394767,122.17902 95.431085,83.399232 134.62579,86.261084 160.01221,105.40059 A 61.027237,61.027237 0 0 0 112.8483,72.17261 Z m 10.6942,27.389162 c -9.42361,-0.411027 -18.78778,1.830906 -26.901501,6.957136 46.433181,-7.597095 60.026151,38.28018 41.004791,78.07945 a 61.027237,61.027237 0 0 0 28.83815,-51.84785 61.027237,61.027237 0 0 0 -0.84177,-10.10052 C 155.11958,108.30039 139.24854,100.24681 123.5425,99.561774 Z M 47.501641,113.6317 a 61.027237,61.027237 0 0 0 -3.072108,19.11881 61.027237,61.027237 0 0 0 5.414312,25.13041 c 22.196288,17.48232 51.751765,19.19216 67.115045,-0.23774 -28.313143,15.34704 -59.080886,-7.38997 -69.457249,-44.01148 z m 83.125219,10.21013 c 7.26418,39.08134 -29.59453,70.50057 -68.41382,51.97056 a 61.027237,61.027237 0 0 0 43.24371,17.96531 61.027237,61.027237 0 0 0 20.73382,-3.63014 c 18.44108,-28.42535 10.54174,-60.02553 4.43629,-66.30573 z" /></g></svg>
